<svg xmlns="http://www.w3.org/2000/svg" xmlns:xlink="http://www.w3.org/1999/xlink" width="500" zoomAndPan="magnify" viewBox="0 0 375 374.999991" height="500" preserveAspectRatio="xMidYMid meet" version="1.0"><defs><g/><clipPath id="1e43f8d828"><path d="M 27.421875 146.703125 L 121.984375 146.703125 L 121.984375 237.464844 L 27.421875 237.464844 Z M 27.421875 146.703125 " clip-rule="nonzero"/></clipPath><clipPath id="fe6f478eff"><path d="M 95.1875 208.8125 L 107.042969 234.246094 C 105.980469 234.832031 104.890625 235.394531 103.769531 235.910156 L 100.382812 237.355469 L 71.671875 175.773438 L 28.136719 196.074219 C 27.710938 193.480469 27.472656 190.890625 27.429688 188.289062 L 116.363281 146.824219 C 118.320312 148.523438 120.160156 150.375 121.859375 152.371094 L 78.328125 172.671875 Z M 95.1875 208.8125 " clip-rule="nonzero"/></clipPath><clipPath id="09d43ba25e"><path d="M 29.53125 185.117188 L 93.703125 185.117188 L 93.703125 240 L 29.53125 240 Z M 29.53125 185.117188 " clip-rule="nonzero"/></clipPath><clipPath id="585faa150d"><path d="M 34.535156 204.441406 L 34.0625 204.605469 C 33.015625 204.679688 32.214844 204.242188 31.84375 203.457031 L 31.710938 203.109375 C 31.539062 202.0625 31.984375 201.160156 32.828125 200.777344 C 33.835938 200.304688 35.039062 200.742188 35.507812 201.75 C 35.988281 202.765625 35.542969 203.96875 34.535156 204.441406 M 81.507812 214.242188 L 68.121094 185.53125 L 36.683594 200.191406 C 35.59375 198.84375 33.695312 198.34375 32.050781 199.109375 C 31.023438 199.589844 30.300781 200.464844 29.996094 201.480469 C 29.726562 202.359375 29.765625 203.335938 30.1875 204.238281 C 31.085938 206.167969 33.382812 207.007812 35.3125 206.109375 L 35.539062 205.996094 C 37.070312 205.097656 37.773438 203.445312 37.460938 201.859375 L 67.234375 187.980469 L 91.460938 239.945312 C 92.074219 239.832031 92.691406 239.699219 93.308594 239.550781 Z M 81.507812 214.242188 " clip-rule="nonzero"/></clipPath><clipPath id="35e54b753d"><path d="M 28.265625 139.101562 L 108.476562 139.101562 L 108.476562 180.894531 L 28.265625 180.894531 Z M 28.265625 139.101562 " clip-rule="nonzero"/></clipPath><clipPath id="2a7e155205"><path d="M 105.28125 145.109375 C 104.265625 145.578125 103.0625 145.144531 102.589844 144.125 C 102.121094 143.117188 102.558594 141.914062 103.566406 141.445312 C 104.582031 140.976562 105.785156 141.410156 106.257812 142.417969 C 106.726562 143.4375 106.289062 144.640625 105.28125 145.109375 M 33.238281 178.695312 C 32.230469 179.164062 31.027344 178.730469 30.554688 177.722656 C 30.078125 176.703125 30.523438 175.5 31.53125 175.03125 C 32.539062 174.5625 33.742188 174.996094 34.21875 176.015625 C 34.691406 177.023438 34.253906 178.226562 33.238281 178.695312 M 107.921875 141.640625 C 107.023438 139.707031 104.71875 138.875 102.785156 139.777344 C 101.152344 140.542969 100.3125 142.316406 100.648438 144.015625 L 35.386719 174.449219 C 34.296875 173.09375 32.398438 172.605469 30.753906 173.363281 C 28.824219 174.261719 27.988281 176.566406 28.890625 178.496094 C 29.792969 180.429688 32.09375 181.261719 34.015625 180.359375 C 35.660156 179.601562 36.5 177.820312 36.164062 176.121094 L 101.425781 145.6875 C 102.515625 147.035156 104.414062 147.53125 106.058594 146.773438 C 107.980469 145.875 108.820312 143.570312 107.921875 141.640625 " clip-rule="nonzero"/></clipPath><clipPath id="1885dfd37f"><path d="M 35.019531 134.035156 L 91.589844 134.035156 L 91.589844 164.855469 L 35.019531 164.855469 Z M 35.019531 134.035156 " clip-rule="nonzero"/></clipPath><clipPath id="81456af8c0"><path d="M 88.535156 139.734375 C 87.527344 140.203125 86.324219 139.765625 85.84375 138.757812 C 85.375 137.742188 85.8125 136.539062 86.828125 136.070312 C 87.835938 135.597656 89.039062 136.035156 89.519531 137.050781 C 89.988281 138.058594 89.542969 139.261719 88.535156 139.734375 M 39.878906 162.429688 C 38.871094 162.898438 37.667969 162.460938 37.199219 161.445312 C 36.730469 160.4375 37.164062 159.234375 38.171875 158.761719 C 39.191406 158.285156 40.394531 158.730469 40.863281 159.738281 C 41.332031 160.753906 40.898438 161.957031 39.878906 162.429688 M 91.179688 136.277344 C 90.28125 134.34375 87.984375 133.5 86.050781 134.402344 C 84.410156 135.171875 83.570312 136.953125 83.90625 138.652344 L 42.027344 158.179688 C 40.941406 156.832031 39.042969 156.332031 37.398438 157.097656 C 35.464844 157.996094 34.632812 160.300781 35.535156 162.222656 C 36.433594 164.15625 38.738281 164.988281 40.660156 164.089844 C 42.304688 163.332031 43.140625 161.546875 42.808594 159.847656 L 84.6875 140.324219 C 85.777344 141.667969 87.675781 142.167969 89.320312 141.402344 C 91.25 140.503906 92.085938 138.199219 91.183594 136.277344 " clip-rule="nonzero"/></clipPath><clipPath id="c7f2fd0002"><path d="M 34.597656 201.160156 L 81 201.160156 L 81 241 L 34.597656 241 Z M 34.597656 201.160156 " clip-rule="nonzero"/></clipPath><clipPath id="16ba3341f1"><path d="M 39.539062 215.277344 C 38.527344 215.746094 37.324219 215.3125 36.855469 214.300781 C 36.386719 213.285156 36.820312 212.082031 37.828125 211.613281 C 38.847656 211.140625 40.050781 211.578125 40.519531 212.59375 C 40.992188 213.601562 40.554688 214.804688 39.539062 215.277344 M 69.121094 215.929688 L 62.347656 201.402344 L 41.679688 211.03125 C 40.59375 209.675781 38.695312 209.183594 37.050781 209.941406 C 35.128906 210.839844 34.285156 213.144531 35.1875 215.078125 C 36.089844 217.007812 38.390625 217.84375 40.320312 216.941406 C 41.957031 216.175781 42.796875 214.398438 42.460938 212.699219 L 61.457031 203.847656 L 78.738281 240.898438 C 79.421875 240.941406 80.097656 240.957031 80.792969 240.957031 Z M 69.121094 215.929688 " clip-rule="nonzero"/></clipPath><clipPath id="d287e67f1b"><path d="M 88 156.832031 L 127.472656 156.832031 L 127.472656 230.289062 L 88 230.289062 Z M 88 156.832031 " clip-rule="nonzero"/></clipPath><clipPath id="e18d17695f"><path d="M 124.152344 162.644531 L 124.140625 162.652344 C 123.125 163.121094 121.921875 162.6875 121.453125 161.679688 C 120.980469 160.660156 121.417969 159.457031 122.433594 158.988281 C 123.027344 158.707031 123.695312 158.746094 124.242188 159.046875 C 124.617188 159.246094 124.929688 159.558594 125.121094 159.972656 C 125.589844 160.980469 125.15625 162.171875 124.15625 162.644531 M 126.785156 159.195312 C 126.273438 158.089844 125.289062 157.339844 124.191406 157.066406 C 123.367188 156.867188 122.484375 156.933594 121.660156 157.320312 C 120.015625 158.085938 119.175781 159.859375 119.515625 161.566406 L 88.089844 176.21875 L 113.277344 230.234375 C 113.78125 229.859375 114.285156 229.46875 114.761719 229.070312 L 90.535156 177.109375 L 120.292969 163.226562 C 121.179688 164.335938 122.609375 164.871094 124.003906 164.605469 L 124.917969 164.316406 C 126.847656 163.417969 127.679688 161.113281 126.78125 159.191406 " clip-rule="nonzero"/></clipPath><clipPath id="8bd16a4048"><path d="M 103.832031 167.386719 L 132.539062 167.386719 L 132.539062 221.84375 L 103.832031 221.84375 Z M 103.832031 167.386719 " clip-rule="nonzero"/></clipPath><clipPath id="2dc3028d47"><path d="M 129.21875 173.464844 C 128.207031 173.933594 127.003906 173.488281 126.535156 172.480469 C 126.066406 171.472656 126.5 170.269531 127.511719 169.789062 C 128.527344 169.320312 129.730469 169.765625 130.199219 170.773438 C 130.671875 171.78125 130.234375 172.984375 129.21875 173.464844 M 131.863281 170 C 130.96875 168.066406 128.664062 167.230469 126.730469 168.132812 C 125.085938 168.890625 124.257812 170.675781 124.582031 172.375 L 103.953125 181.996094 L 122.398438 221.546875 C 122.832031 221.015625 123.265625 220.492188 123.675781 219.9375 L 106.394531 182.886719 L 125.359375 174.039062 C 126.445312 175.382812 128.351562 175.886719 129.988281 175.121094 C 131.921875 174.222656 132.761719 171.925781 131.859375 169.992188 " clip-rule="nonzero"/></clipPath><clipPath id="fa0d92661e"><path d="M 119.453125 179.628906 L 134.652344 179.628906 L 134.652344 209.601562 L 119.453125 209.601562 Z M 119.453125 179.628906 " clip-rule="nonzero"/></clipPath><clipPath id="f64fe89684"><path d="M 131.636719 185.503906 C 130.628906 185.972656 129.425781 185.539062 128.953125 184.527344 C 128.484375 183.511719 128.921875 182.308594 129.929688 181.839844 C 130.945312 181.367188 132.148438 181.804688 132.617188 182.820312 C 133.089844 183.828125 132.652344 185.03125 131.636719 185.503906 M 134.285156 182.046875 C 133.386719 180.113281 131.082031 179.273438 129.148438 180.175781 C 127.503906 180.941406 126.675781 182.722656 127 184.421875 L 119.8125 187.773438 L 129.9375 209.476562 C 130.277344 208.734375 130.605469 207.972656 130.902344 207.207031 L 122.257812 188.664062 L 127.777344 186.089844 C 128.867188 187.433594 130.773438 187.933594 132.40625 187.167969 C 134.339844 186.269531 135.167969 183.964844 134.28125 182.042969 " clip-rule="nonzero"/></clipPath><clipPath id="e8bd73bcb8"><path d="M 42.199219 217.203125 L 67 217.203125 L 67 239 L 42.199219 239 Z M 42.199219 217.203125 " clip-rule="nonzero"/></clipPath><clipPath id="69b33b50bf"><path d="M 47.234375 224.863281 C 46.226562 225.332031 45.023438 224.898438 44.554688 223.878906 C 44.082031 222.871094 44.519531 221.667969 45.527344 221.199219 C 46.542969 220.71875 47.746094 221.164062 48.21875 222.171875 C 48.6875 223.183594 48.25 224.394531 47.234375 224.863281 M 56.566406 217.261719 L 49.378906 220.613281 C 48.289062 219.265625 46.390625 218.765625 44.746094 219.535156 C 42.816406 220.433594 41.980469 222.738281 42.882812 224.660156 C 43.78125 226.59375 46.085938 227.421875 48.011719 226.523438 C 49.652344 225.765625 50.492188 223.984375 50.15625 222.285156 L 55.679688 219.707031 L 64.324219 238.257812 C 65.109375 238.523438 65.898438 238.753906 66.691406 238.976562 Z M 56.566406 217.261719 " clip-rule="nonzero"/></clipPath></defs><g clip-path="url(#1e43f8d828)"><g clip-path="url(#fe6f478eff)"><path fill="#fbfbfd" d="M 25.3125 131.925781 L 136.761719 131.925781 L 136.761719 242.953125 L 25.3125 242.953125 Z M 25.3125 131.925781 " fill-opacity="1" fill-rule="nonzero"/></g></g><g clip-path="url(#09d43ba25e)"><g clip-path="url(#585faa150d)"><path fill="#fbfbfd" d="M 25.3125 131.925781 L 136.761719 131.925781 L 136.761719 242.953125 L 25.3125 242.953125 Z M 25.3125 131.925781 " fill-opacity="1" fill-rule="nonzero"/></g></g><g clip-path="url(#35e54b753d)"><g clip-path="url(#2a7e155205)"><path fill="#fbfbfd" d="M 25.3125 131.925781 L 136.761719 131.925781 L 136.761719 242.953125 L 25.3125 242.953125 Z M 25.3125 131.925781 " fill-opacity="1" fill-rule="nonzero"/></g></g><g clip-path="url(#1885dfd37f)"><g clip-path="url(#81456af8c0)"><path fill="#fbfbfd" d="M 25.3125 131.925781 L 136.761719 131.925781 L 136.761719 242.953125 L 25.3125 242.953125 Z M 25.3125 131.925781 " fill-opacity="1" fill-rule="nonzero"/></g></g><g clip-path="url(#c7f2fd0002)"><g clip-path="url(#16ba3341f1)"><path fill="#fbfbfd" d="M 25.3125 131.925781 L 136.761719 131.925781 L 136.761719 242.953125 L 25.3125 242.953125 Z M 25.3125 131.925781 " fill-opacity="1" fill-rule="nonzero"/></g></g><g clip-path="url(#d287e67f1b)"><g clip-path="url(#e18d17695f)"><path fill="#fbfbfd" d="M 25.3125 131.925781 L 136.761719 131.925781 L 136.761719 242.953125 L 25.3125 242.953125 Z M 25.3125 131.925781 " fill-opacity="1" fill-rule="nonzero"/></g></g><g clip-path="url(#8bd16a4048)"><g clip-path="url(#2dc3028d47)"><path fill="#fbfbfd" d="M 25.3125 131.925781 L 136.761719 131.925781 L 136.761719 242.953125 L 25.3125 242.953125 Z M 25.3125 131.925781 " fill-opacity="1" fill-rule="nonzero"/></g></g><g clip-path="url(#fa0d92661e)"><g clip-path="url(#f64fe89684)"><path fill="#fbfbfd" d="M 25.3125 131.925781 L 136.761719 131.925781 L 136.761719 242.953125 L 25.3125 242.953125 Z M 25.3125 131.925781 " fill-opacity="1" fill-rule="nonzero"/></g></g><g clip-path="url(#e8bd73bcb8)"><g clip-path="url(#69b33b50bf)"><path fill="#fbfbfd" d="M 25.3125 131.925781 L 136.761719 131.925781 L 136.761719 242.953125 L 25.3125 242.953125 Z M 25.3125 131.925781 " fill-opacity="1" fill-rule="nonzero"/></g></g><g fill="#fbfbfd" fill-opacity="1"><g transform="translate(142.913666, 212.314507)"><g><path d="M 24.1875 -25.859375 C 24.332031 -25.859375 24.519531 -25.800781 24.75 -25.6875 C 24.976562 -25.570312 25.09375 -25.269531 25.09375 -24.78125 L 25.09375 -22.34375 C 25.09375 -21.8125 24.976562 -21.488281 24.75 -21.375 C 24.519531 -21.257812 24.332031 -21.203125 24.1875 -21.203125 L 16.125 -21.203125 L 16.125 -1.0625 C 16.125 -0.582031 16.015625 -0.285156 15.796875 -0.171875 C 15.578125 -0.0546875 15.394531 0 15.25 0 L 12.359375 0 C 12.234375 0 12.054688 -0.0546875 11.828125 -0.171875 C 11.597656 -0.285156 11.484375 -0.582031 11.484375 -1.0625 L 11.484375 -21.203125 L 3.421875 -21.203125 C 3.273438 -21.203125 3.085938 -21.257812 2.859375 -21.375 C 2.628906 -21.488281 2.515625 -21.8125 2.515625 -22.34375 L 2.515625 -24.78125 C 2.515625 -25.269531 2.628906 -25.570312 2.859375 -25.6875 C 3.085938 -25.800781 3.273438 -25.859375 3.421875 -25.859375 Z M 24.1875 -25.859375 "/></g></g></g><g fill="#fbfbfd" fill-opacity="1"><g transform="translate(172.095586, 212.314507)"><g><path d="M 21.359375 -5.609375 C 21.515625 -5.609375 21.707031 -5.550781 21.9375 -5.4375 C 22.164062 -5.320312 22.28125 -5.023438 22.28125 -4.546875 L 22.28125 -1.09375 C 22.28125 -0.613281 22.164062 -0.316406 21.9375 -0.203125 C 21.707031 -0.0859375 21.515625 -0.03125 21.359375 -0.03125 L 10.234375 -0.03125 C 9.535156 -0.03125 8.894531 -0.0703125 8.3125 -0.15625 C 7.726562 -0.238281 7.195312 -0.375 6.71875 -0.5625 C 5.6875 -0.914062 4.867188 -1.492188 4.265625 -2.296875 C 3.640625 -3.109375 3.191406 -4.128906 2.921875 -5.359375 C 2.816406 -5.890625 2.726562 -6.46875 2.65625 -7.09375 C 2.582031 -7.71875 2.535156 -8.394531 2.515625 -9.125 L 2.515625 -9.28125 L 2.578125 -13.234375 C 2.640625 -13.460938 2.753906 -13.726562 2.921875 -14.03125 C 3.378906 -14.84375 4.085938 -15.28125 5.046875 -15.34375 L 21.234375 -15.375 C 21.359375 -15.375 21.535156 -15.316406 21.765625 -15.203125 C 22.003906 -15.085938 22.125 -14.789062 22.125 -14.3125 L 22.125 -11.828125 C 22.125 -11.347656 22.003906 -11.046875 21.765625 -10.921875 C 21.535156 -10.796875 21.359375 -10.734375 21.234375 -10.734375 L 7.21875 -10.734375 C 7.21875 -10.734375 7.210938 -10.617188 7.203125 -10.390625 C 7.191406 -10.160156 7.179688 -9.894531 7.171875 -9.59375 C 7.160156 -9.300781 7.15625 -9.039062 7.15625 -8.8125 C 7.15625 -8.582031 7.15625 -8.46875 7.15625 -8.46875 C 7.175781 -8.382812 7.1875 -8.296875 7.1875 -8.203125 C 7.1875 -8.109375 7.195312 -8.019531 7.21875 -7.9375 C 7.300781 -7.351562 7.476562 -6.882812 7.75 -6.53125 C 8 -6.21875 8.3125 -5.984375 8.6875 -5.828125 C 8.914062 -5.765625 9.160156 -5.710938 9.421875 -5.671875 C 9.691406 -5.628906 9.992188 -5.609375 10.328125 -5.609375 Z M 5.265625 -15.09375 Z M 21.390625 -25.921875 C 21.523438 -25.921875 21.707031 -25.859375 21.9375 -25.734375 C 22.164062 -25.609375 22.28125 -25.300781 22.28125 -24.8125 L 22.28125 -22.34375 C 22.28125 -21.863281 22.164062 -21.554688 21.9375 -21.421875 C 21.707031 -21.296875 21.523438 -21.234375 21.390625 -21.234375 L 3.359375 -21.265625 C 3.234375 -21.265625 3.0625 -21.320312 2.84375 -21.4375 C 2.625 -21.5625 2.515625 -21.863281 2.515625 -22.34375 L 2.515625 -24.78125 C 2.515625 -25.289062 2.625 -25.609375 2.84375 -25.734375 C 3.0625 -25.859375 3.234375 -25.921875 3.359375 -25.921875 Z M 21.390625 -25.921875 "/></g></g></g><g fill="#fbfbfd" fill-opacity="1"><g transform="translate(198.453447, 212.314507)"><g><path d="M 21.6875 -25.859375 C 21.8125 -25.859375 21.988281 -25.789062 22.21875 -25.65625 C 22.445312 -25.53125 22.5625 -25.226562 22.5625 -24.75 L 22.5625 -22.34375 C 22.5625 -21.84375 22.445312 -21.523438 22.21875 -21.390625 C 21.988281 -21.265625 21.8125 -21.203125 21.6875 -21.203125 L 10.421875 -21.203125 C 9.703125 -21.203125 9.15625 -21.128906 8.78125 -20.984375 C 8.40625 -20.859375 8.09375 -20.628906 7.84375 -20.296875 C 7.613281 -19.984375 7.4375 -19.523438 7.3125 -18.921875 C 7.269531 -18.628906 7.234375 -18.285156 7.203125 -17.890625 C 7.171875 -17.503906 7.15625 -17.070312 7.15625 -16.59375 L 7.15625 -9.28125 C 7.15625 -8.820312 7.171875 -8.394531 7.203125 -8 C 7.234375 -7.601562 7.269531 -7.25 7.3125 -6.9375 C 7.375 -6.644531 7.445312 -6.378906 7.53125 -6.140625 C 7.613281 -5.910156 7.71875 -5.710938 7.84375 -5.546875 C 8.09375 -5.210938 8.40625 -4.984375 8.78125 -4.859375 C 9.15625 -4.710938 9.703125 -4.640625 10.421875 -4.640625 L 21.6875 -4.640625 C 21.8125 -4.640625 21.988281 -4.578125 22.21875 -4.453125 C 22.445312 -4.328125 22.5625 -4.023438 22.5625 -3.546875 L 22.5625 -1.0625 C 22.5625 -0.582031 22.445312 -0.28125 22.21875 -0.15625 C 21.988281 -0.03125 21.8125 0.03125 21.6875 0.03125 L 10.265625 0.03125 C 8.898438 0.03125 7.71875 -0.144531 6.71875 -0.5 C 5.75 -0.832031 4.941406 -1.410156 4.296875 -2.234375 C 3.648438 -3.066406 3.191406 -4.085938 2.921875 -5.296875 C 2.773438 -5.929688 2.671875 -6.625 2.609375 -7.375 C 2.546875 -8.125 2.515625 -8.941406 2.515625 -9.828125 L 2.515625 -16.03125 C 2.515625 -16.882812 2.546875 -17.6875 2.609375 -18.4375 C 2.671875 -19.195312 2.773438 -19.878906 2.921875 -20.484375 C 3.191406 -21.742188 3.648438 -22.769531 4.296875 -23.5625 C 4.898438 -24.351562 5.707031 -24.9375 6.71875 -25.3125 C 7.71875 -25.675781 8.898438 -25.859375 10.265625 -25.859375 Z M 21.6875 -25.859375 "/></g></g></g><g fill="#fbfbfd" fill-opacity="1"><g transform="translate(225.093716, 212.314507)"><g><path d="M 22.78125 -25.859375 C 22.925781 -25.859375 23.113281 -25.789062 23.34375 -25.65625 C 23.570312 -25.53125 23.6875 -25.226562 23.6875 -24.75 L 23.6875 -1.0625 C 23.6875 -0.582031 23.570312 -0.28125 23.34375 -0.15625 C 23.113281 -0.03125 22.925781 0.03125 22.78125 0.03125 L 19.890625 0.03125 C 19.765625 0.03125 19.59375 -0.03125 19.375 -0.15625 C 19.15625 -0.28125 19.046875 -0.582031 19.046875 -1.0625 L 19.046875 -10.734375 L 7.15625 -10.734375 L 7.15625 -1.0625 C 7.15625 -0.582031 7.046875 -0.28125 6.828125 -0.15625 C 6.609375 -0.03125 6.425781 0.03125 6.28125 0.03125 L 3.421875 0.03125 C 3.273438 0.03125 3.085938 -0.03125 2.859375 -0.15625 C 2.628906 -0.28125 2.515625 -0.582031 2.515625 -1.0625 L 2.515625 -24.75 C 2.515625 -25.226562 2.628906 -25.53125 2.859375 -25.65625 C 3.085938 -25.789062 3.273438 -25.859375 3.421875 -25.859375 L 6.28125 -25.859375 C 6.425781 -25.859375 6.609375 -25.789062 6.828125 -25.65625 C 7.046875 -25.53125 7.15625 -25.226562 7.15625 -24.75 L 7.15625 -15.375 L 19.046875 -15.375 L 19.046875 -24.75 C 19.046875 -25.226562 19.15625 -25.53125 19.375 -25.65625 C 19.59375 -25.789062 19.765625 -25.859375 19.890625 -25.859375 Z M 22.78125 -25.859375 "/></g></g></g><g fill="#fbfbfd" fill-opacity="1"><g transform="translate(252.863617, 212.314507)"><g><path d="M 24.1875 -25.859375 C 24.332031 -25.859375 24.519531 -25.800781 24.75 -25.6875 C 24.976562 -25.570312 25.09375 -25.269531 25.09375 -24.78125 L 25.09375 -22.34375 C 25.09375 -21.8125 24.976562 -21.488281 24.75 -21.375 C 24.519531 -21.257812 24.332031 -21.203125 24.1875 -21.203125 L 16.125 -21.203125 L 16.125 -1.0625 C 16.125 -0.582031 16.015625 -0.285156 15.796875 -0.171875 C 15.578125 -0.0546875 15.394531 0 15.25 0 L 12.359375 0 C 12.234375 0 12.054688 -0.0546875 11.828125 -0.171875 C 11.597656 -0.285156 11.484375 -0.582031 11.484375 -1.0625 L 11.484375 -21.203125 L 3.421875 -21.203125 C 3.273438 -21.203125 3.085938 -21.257812 2.859375 -21.375 C 2.628906 -21.488281 2.515625 -21.8125 2.515625 -22.34375 L 2.515625 -24.78125 C 2.515625 -25.269531 2.628906 -25.570312 2.859375 -25.6875 C 3.085938 -25.800781 3.273438 -25.859375 3.421875 -25.859375 Z M 24.1875 -25.859375 "/></g></g></g><g fill="#fbfbfd" fill-opacity="1"><g transform="translate(282.045537, 212.314507)"><g><path d="M 6.28125 -25.859375 C 6.40625 -25.859375 6.582031 -25.789062 6.8125 -25.65625 C 7.039062 -25.53125 7.15625 -25.226562 7.15625 -24.75 L 7.15625 -1.0625 C 7.15625 -0.582031 7.039062 -0.28125 6.8125 -0.15625 C 6.582031 -0.03125 6.40625 0.03125 6.28125 0.03125 L 3.390625 0.03125 C 3.265625 0.03125 3.085938 -0.03125 2.859375 -0.15625 C 2.628906 -0.28125 2.515625 -0.582031 2.515625 -1.0625 L 2.515625 -24.75 C 2.515625 -25.226562 2.628906 -25.53125 2.859375 -25.65625 C 3.085938 -25.789062 3.265625 -25.859375 3.390625 -25.859375 Z M 6.28125 -25.859375 "/></g></g></g><g fill="#fbfbfd" fill-opacity="1"><g transform="translate(293.279005, 212.314507)"><g><path d="M 24.71875 -25.859375 C 24.84375 -25.859375 25.019531 -25.800781 25.25 -25.6875 C 25.488281 -25.570312 25.609375 -25.257812 25.609375 -24.75 L 25.609375 -4.015625 C 25.609375 -2.484375 25.382812 -1.4375 24.9375 -0.875 C 24.5 -0.269531 23.820312 0.03125 22.90625 0.03125 L 20.609375 0.03125 C 20.191406 0.03125 19.835938 0 19.546875 -0.0625 C 19.398438 -0.101562 19.253906 -0.148438 19.109375 -0.203125 C 18.960938 -0.253906 18.828125 -0.320312 18.703125 -0.40625 C 18.453125 -0.550781 18.222656 -0.78125 18.015625 -1.09375 C 17.910156 -1.238281 17.789062 -1.40625 17.65625 -1.59375 C 17.53125 -1.78125 17.40625 -2.003906 17.28125 -2.265625 L 7.34375 -19.890625 C 7.320312 -19.929688 7.300781 -19.957031 7.28125 -19.96875 C 7.257812 -19.976562 7.25 -19.984375 7.25 -19.984375 L 7.09375 -19.984375 C 7.09375 -19.984375 7.09375 -19.976562 7.09375 -19.96875 C 7.09375 -19.957031 7.09375 -19.941406 7.09375 -19.921875 L 7.09375 -1.0625 C 7.09375 -0.582031 6.984375 -0.28125 6.765625 -0.15625 C 6.546875 -0.03125 6.363281 0.03125 6.21875 0.03125 L 3.421875 0.03125 C 3.273438 0.03125 3.085938 -0.03125 2.859375 -0.15625 C 2.628906 -0.28125 2.515625 -0.582031 2.515625 -1.0625 L 2.515625 -21.8125 C 2.515625 -23.332031 2.734375 -24.382812 3.171875 -24.96875 C 3.628906 -25.5625 4.304688 -25.859375 5.203125 -25.859375 L 7.5625 -25.859375 C 7.769531 -25.859375 7.96875 -25.851562 8.15625 -25.84375 C 8.34375 -25.832031 8.507812 -25.816406 8.65625 -25.796875 C 8.988281 -25.734375 9.28125 -25.601562 9.53125 -25.40625 C 9.75 -25.257812 9.972656 -25.019531 10.203125 -24.6875 C 10.304688 -24.539062 10.414062 -24.375 10.53125 -24.1875 C 10.644531 -24 10.765625 -23.789062 10.890625 -23.5625 L 20.796875 -5.9375 C 20.816406 -5.863281 20.847656 -5.828125 20.890625 -5.828125 L 21.046875 -5.828125 C 21.046875 -5.847656 21.046875 -5.859375 21.046875 -5.859375 C 21.046875 -5.859375 21.046875 -5.875 21.046875 -5.90625 L 21.046875 -24.75 C 21.046875 -25.257812 21.15625 -25.570312 21.375 -25.6875 C 21.601562 -25.800781 21.789062 -25.859375 21.9375 -25.859375 Z M 24.71875 -25.859375 "/></g></g></g><g fill="#fbfbfd" fill-opacity="1"><g transform="translate(322.962973, 212.314507)"><g><path d="M 17.671875 -15.4375 C 19.296875 -15.4375 20.535156 -14.859375 21.390625 -13.703125 C 22.210938 -12.578125 22.625 -10.988281 22.625 -8.9375 L 22.625 -6.1875 C 22.625 -4.382812 22.222656 -2.90625 21.421875 -1.75 C 20.609375 -0.582031 19.332031 0 17.59375 0 L 3.453125 0 C 3.304688 0 3.117188 -0.0546875 2.890625 -0.171875 C 2.660156 -0.285156 2.546875 -0.582031 2.546875 -1.0625 L 2.546875 -3.578125 C 2.546875 -4.054688 2.660156 -4.351562 2.890625 -4.46875 C 3.117188 -4.582031 3.304688 -4.640625 3.453125 -4.640625 L 16.84375 -4.640625 C 17.113281 -4.640625 17.304688 -4.6875 17.421875 -4.78125 C 17.535156 -4.875 17.628906 -4.960938 17.703125 -5.046875 C 17.890625 -5.359375 17.984375 -5.800781 17.984375 -6.375 L 17.984375 -9.0625 C 17.984375 -9.84375 17.851562 -10.328125 17.59375 -10.515625 C 17.34375 -10.703125 17.101562 -10.796875 16.875 -10.796875 L 7.46875 -10.796875 C 6.820312 -10.796875 6.15625 -10.878906 5.46875 -11.046875 C 4.789062 -11.210938 4.210938 -11.617188 3.734375 -12.265625 C 2.921875 -13.421875 2.515625 -15.09375 2.515625 -17.28125 L 2.515625 -19.671875 C 2.515625 -21.515625 2.921875 -23 3.734375 -24.125 C 4.546875 -25.28125 5.8125 -25.859375 7.53125 -25.859375 L 21.046875 -25.859375 C 21.171875 -25.859375 21.347656 -25.800781 21.578125 -25.6875 C 21.816406 -25.570312 21.9375 -25.269531 21.9375 -24.78125 L 21.9375 -22.28125 C 21.9375 -21.789062 21.816406 -21.488281 21.578125 -21.375 C 21.347656 -21.257812 21.171875 -21.203125 21.046875 -21.203125 L 8.28125 -21.203125 C 8.007812 -21.203125 7.816406 -21.160156 7.703125 -21.078125 C 7.585938 -20.992188 7.5 -20.898438 7.4375 -20.796875 C 7.269531 -20.460938 7.1875 -20.023438 7.1875 -19.484375 L 7.1875 -17.15625 C 7.1875 -16.382812 7.304688 -15.90625 7.546875 -15.71875 C 7.785156 -15.53125 8.019531 -15.4375 8.25 -15.4375 Z M 17.671875 -15.4375 "/></g></g></g></svg>